<svg height="800pt" preserveAspectRatio="xMidYMid meet" viewBox="0 0 800 800" width="800pt" xmlns="http://www.w3.org/2000/svg">
  <g transform="matrix(.1 0 0 -.1 0 800)">
    <path d="m2350 7384c-340-8-651-61-840-144-285-124-518-332-678-605-38-64-98-196-108-234-2-9-17-68-33-132-78-308-84-497-78-2439 3-872 8-1614 11-1650 38-461 110-690 298-959 49-69 204-226 282-285 269-203 485-273 967-316 157-14 3511-14 3668 0 556 50 817 154 1106 444 205 205 327 430 386 712 62 296 69 529 69 2164 0 1322-9 1884-31 2040-43 307-75 423-166 600-69 135-156 251-274 367-133 130-275 227-413 284-39 17-78 34-87 38-22 12-259 67-344 80-38 6-110 16-160 22-66 9-533 13-1775 14-927 1-1737 0-1800-1zm1809-785c191-31 395-148 523-302 71-86 122-168 229-369 98-184 665-1314 769-1533 34-71 92-191 127-265 126-262 393-835 473-1015 112-254 150-405 150-600 0-505-317-925-810-1072-91-27-104-28-305-28-190 0-218 2-300 24-303 81-577 254-879 554l-129 128-126-124c-358-352-676-534-1008-578-121-16-345-6-448 20-390 97-699 404-805 796-27 100-39 347-21 451 19 113 58 237 120 382 254 592 1254 2639 1479 3026 171 294 388 460 660 506 70 11 228 11 301-1z" fill="#FF5A5E"/>
    <path d="m3928 6260c-163-29-278-108-385-265-142-210-908-1753-1385-2790-193-420-217-490-225-662-7-145 12-234 79-373 45-93 61-115 147-200 82-83 109-103 191-142 205-99 400-112 625-41 147 46 328 150 470 268 80 67 335 316 335 328 0 4-42 63-93 130-297 390-486 765-544 1079-24 129-24 347 0 450 36 152 102 279 201 385 178 191 396 284 664 283 246-1 450-77 614-229 321-296 362-747 121-1299-83-189-258-473-415-671-108-137-110-114 23-248 317-320 574-473 865-514 164-23 350 16 499 103 84 50 217 180 264 260 123 212 143 437 60 681-39 115-159 380-434 962-398 843-1024 2085-1128 2240-116 171-252 255-433 269-38 2-90 1-116-4z" fill="#FF5A5E"/>
    <path d="m3867 4354c-195-47-342-193-388-384-18-73-15-237 5-330 55-255 218-575 453-892 36-49 69-88 73-88 5 0 42 46 83 103 292 402 428 702 462 1013 9 86-17 231-58 313-84 171-278 281-492 280-44 0-106-7-138-15z" fill="#FF5A5E"/>
  </g>
</svg>
